<svg width="64" height="55" viewBox="0 0 64 55" fill="none" xmlns="http://www.w3.org/2000/svg">
<path d="M13.9677 42.1859L22.7466 20.4669L2.03053 20.4505C0.830328 20.4505 -0.62807 21.9088 0.287719 24.1498C2.25245 28.9576 6.96572 38.6267 8.65633 42.1859C9.97387 44.9596 13.293 44.0873 13.9677 42.1859Z" fill="#BFBDFF"/>
<path d="M41.6383 0H60.9747C63.5498 0.0347808 64.7298 1.28091 62.9796 5.21723L43.6067 50.6365C42.3443 53.4471 41.4901 54.1982 39.7552 54.327H14.9927C17.5547 51.7408 18.4278 50.3568 19.854 47.2091L28.3155 27.1635L37.7799 4.4702C39.0827 1.24717 39.9221 0.258521 41.6383 0Z" fill="#BFBDFF"/>
</svg>
