<svg width="17" height="17" viewBox="0 0 17 17" fill="none" xmlns="http://www.w3.org/2000/svg">
<path d="M8.93898 0.0859785C9.42598 0.216978 9.84698 0.543979 10.359 0.939979L10.656 1.16998C10.899 1.35698 10.957 1.39998 11.015 1.43098C11.0773 1.46485 11.143 1.492 11.211 1.51198C11.274 1.53098 11.345 1.54198 11.649 1.58198L12.022 1.62898C12.664 1.71098 13.192 1.77798 13.629 2.02898C14.012 2.24898 14.329 2.56598 14.549 2.94898C14.8 3.38498 14.867 3.91398 14.949 4.55598L14.997 4.92898C15.036 5.23298 15.047 5.30398 15.066 5.36698C15.086 5.43498 15.1126 5.50031 15.146 5.56298C15.178 5.62098 15.221 5.67898 15.408 5.92198L15.638 6.21898C16.034 6.73098 16.361 7.15198 16.492 7.63898C16.6066 8.06473 16.6066 8.51323 16.492 8.93898C16.361 9.42598 16.034 9.84698 15.638 10.359L15.408 10.656C15.221 10.899 15.178 10.957 15.147 11.015C15.113 11.0776 15.086 11.143 15.066 11.211C15.047 11.274 15.036 11.345 14.996 11.649L14.949 12.022C14.867 12.664 14.8 13.192 14.549 13.629C14.3289 14.0115 14.0115 14.3289 13.629 14.549C13.193 14.8 12.664 14.867 12.022 14.949L11.649 14.997C11.345 15.036 11.274 15.047 11.211 15.066C11.143 15.086 11.0776 15.1126 11.015 15.146C10.957 15.178 10.899 15.221 10.656 15.408L10.359 15.638C9.84698 16.034 9.42598 16.361 8.93898 16.492C8.51323 16.6066 8.06473 16.6066 7.63898 16.492C7.15198 16.361 6.73098 16.034 6.21898 15.638L5.92198 15.408C5.67898 15.221 5.62098 15.178 5.56298 15.147C5.5007 15.1131 5.435 15.086 5.36698 15.066C5.30398 15.047 5.23298 15.036 4.92898 14.996L4.55598 14.949C3.91398 14.867 3.38598 14.8 2.94898 14.549C2.56649 14.3289 2.24907 14.0115 2.02898 13.629C1.77798 13.193 1.71098 12.664 1.62898 12.022L1.58098 11.649C1.54198 11.345 1.53098 11.274 1.51198 11.211C1.49232 11.143 1.46551 11.0773 1.43198 11.015C1.39998 10.957 1.35698 10.899 1.16998 10.656L0.939979 10.359C0.543979 9.84698 0.216978 9.42598 0.0859785 8.93898C-0.0286595 8.51323 -0.0286595 8.06473 0.0859785 7.63898C0.216978 7.15198 0.543979 6.73098 0.939979 6.21898L1.16998 5.92198C1.35698 5.67898 1.39998 5.62098 1.43098 5.56298C1.46485 5.5007 1.492 5.435 1.51198 5.36698C1.53098 5.30398 1.54198 5.23298 1.58198 4.92898L1.62898 4.55598C1.71098 3.91398 1.77798 3.38598 2.02898 2.94898C2.24907 2.56649 2.56649 2.24907 2.94898 2.02898C3.38498 1.77798 3.91398 1.71098 4.55598 1.62898L4.92898 1.58098C5.23298 1.54198 5.30398 1.53098 5.36698 1.51198C5.43496 1.49232 5.50066 1.46551 5.56298 1.43198C5.62098 1.39998 5.67898 1.35698 5.92198 1.16998L6.21898 0.939979C6.73098 0.543979 7.15198 0.216978 7.63898 0.0859785C8.06473 -0.0286595 8.51323 -0.0286595 8.93898 0.0859785ZM11.996 5.58198C11.8085 5.39451 11.5541 5.28919 11.289 5.28919C11.0238 5.28919 10.7695 5.39451 10.582 5.58198L7.28898 8.87498L5.99598 7.58198C5.80738 7.39982 5.55477 7.29903 5.29258 7.3013C5.03038 7.30358 4.77957 7.40875 4.59416 7.59416C4.40875 7.77957 4.30358 8.03038 4.3013 8.29258C4.29903 8.55477 4.39982 8.80738 4.58198 8.99598L6.58198 10.996C6.76951 11.1834 7.02381 11.2888 7.28898 11.2888C7.55414 11.2888 7.80845 11.1834 7.99598 10.996L11.996 6.99598C12.1834 6.80845 12.2888 6.55414 12.2888 6.28898C12.2888 6.02381 12.1834 5.76951 11.996 5.58198Z" fill="#0D99FF"/>
</svg>
